<svg width="120" height="24" viewBox="0 0 120 24" fill="none" xmlns="http://www.w3.org/2000/svg">
<path d="M68.0009 1C61.9244 1 57 5.92371 57 11.9995C57 16.5048 59.7086 20.3712 63.5851 22.0748C63.5535 21.3067 63.5777 20.3833 63.7757 19.5483C63.9868 18.6565 65.191 13.5552 65.191 13.5552C65.191 13.5552 64.8395 12.8522 64.8395 11.8136C64.8395 10.1835 65.7842 8.9672 66.9614 8.9672C67.9619 8.9672 68.4435 9.71668 68.4435 10.6177C68.4435 11.6257 67.8029 13.1265 67.4728 14.5223C67.1975 15.6893 68.0576 16.6415 69.2088 16.6415C71.2935 16.6415 72.6957 13.9644 72.6957 10.7916C72.6957 8.38138 71.0731 6.57741 68.119 6.57741C64.7828 6.57741 62.7027 9.06484 62.7027 11.8433C62.7027 12.8029 62.9863 13.479 63.4298 14.0025C63.6335 14.2433 63.6595 14.3391 63.5888 14.6162C63.534 14.8171 63.414 15.3062 63.3638 15.4977C63.2904 15.7776 63.0644 15.8762 62.8134 15.7748C61.2754 15.1472 60.5594 13.4632 60.5594 11.5699C60.5594 8.44554 63.1946 4.69906 68.4221 4.69906C72.6232 4.69906 75.3857 7.73883 75.3857 11.0008C75.3857 15.3164 72.9858 18.5412 69.4505 18.5412C68.2631 18.5412 67.1464 17.8978 66.7642 17.1687C66.7642 17.1687 66.1245 19.7027 65.9897 20.1927C65.7572 21.0398 65.2997 21.8888 64.8832 22.5499C65.8725 22.841 66.9177 23 68.0019 23C74.0765 23 79 18.0754 79 12.0005C79 5.92371 74.0765 1.00093 68.0019 1.00093L68.0009 1Z" fill="black"/>
<path d="M37.9986 0.00090759V4.03544H34.119C33.3608 4.03544 32.5808 4.56732 32.5808 4.9558V7.60253H37.9795C37.7654 9.63931 37.3168 11.4946 37.3168 11.4946H32.563V23H25.4678V11.4946H22V7.61523H25.4678V4.44933C25.4678 3.87932 25.2933 0 32.7376 0H38L37.9986 0.00090759Z" fill="black"/>
<path d="M109 1C106.013 1 105.637 1.01307 104.464 1.0663C103.294 1.1186 102.495 1.30536 101.794 1.57804C101.071 1.85819 100.457 2.23452 99.8463 2.84617C99.2336 3.45876 98.8582 4.07229 98.5762 4.79413C98.3044 5.4945 98.1186 6.29292 98.0663 7.46394C98.0121 8.63683 98 9.01316 98 11.9995C98 14.9878 98.0131 15.3622 98.0663 16.5351C98.1186 17.7052 98.3044 18.5064 98.5762 19.2049C98.8582 19.9286 99.2336 20.5422 99.8463 21.1529C100.457 21.7655 101.071 22.1409 101.794 22.4229C102.495 22.6946 103.293 22.8805 104.464 22.9346C105.637 22.9869 106.013 23 109 23C111.986 23 112.363 22.9869 113.536 22.9346C114.706 22.8805 115.505 22.6956 116.206 22.4229C116.929 22.1409 117.543 21.7655 118.154 21.1529C118.766 20.5422 119.142 19.9286 119.424 19.2049C119.696 18.5064 119.881 17.7061 119.934 16.5351C119.988 15.3622 120 14.9878 120 11.9995C120 9.01222 119.987 8.63683 119.934 7.46394C119.881 6.29386 119.696 5.4945 119.424 4.79413C119.142 4.07135 118.766 3.45783 118.154 2.84617C117.543 2.23358 116.929 1.85819 116.206 1.57804C115.505 1.30629 114.707 1.1186 113.536 1.0663C112.363 1.01214 111.986 1 109 1ZM109 2.98251C111.938 2.98251 112.284 2.99372 113.445 3.04601C114.518 3.0955 115.1 3.27387 115.488 3.42421C116.001 3.62405 116.367 3.86218 116.753 4.24785C117.139 4.63352 117.377 4.99864 117.577 5.51318C117.727 5.89978 117.907 6.48249 117.955 7.55546C118.009 8.7162 118.018 9.06358 118.018 12.0005C118.018 14.9373 118.008 15.2866 117.955 16.4455C117.906 17.5184 117.727 18.1002 117.577 18.4887C117.377 19.0014 117.139 19.3684 116.753 19.7531C116.367 20.1388 116.002 20.3769 115.488 20.5767C115.1 20.7271 114.518 20.9073 113.445 20.9549C112.284 21.0091 111.937 21.0203 109 21.0203C106.063 21.0203 105.714 21.0091 104.555 20.9549C103.482 20.9064 102.9 20.7271 102.512 20.5767C101.999 20.3769 101.633 20.1388 101.247 19.7531C100.861 19.3693 100.623 19.0023 100.423 18.4887C100.273 18.1002 100.093 17.5184 100.045 16.4455C99.991 15.2866 99.9817 14.9373 99.9817 12.0005C99.9817 9.06358 99.9919 8.7162 100.045 7.55546C100.094 6.48249 100.273 5.90072 100.423 5.51318C100.623 4.99864 100.861 4.63352 101.247 4.24785C101.633 3.86218 101.998 3.62405 102.512 3.42421C102.9 3.27387 103.482 3.0955 104.555 3.04601C105.716 2.99372 106.063 2.98251 109 2.98251Z" fill="black"/>
<path d="M109 15.6674C106.975 15.6674 105.333 14.0248 105.333 12.0003C105.333 9.97574 106.975 8.33407 109 8.33407C111.025 8.33407 112.667 9.97481 112.667 12.0003C112.667 14.0257 111.025 15.6674 109 15.6674ZM109 6.35156C105.88 6.35156 103.352 8.8813 103.352 11.9993C103.352 15.1193 105.88 17.649 109 17.649C112.12 17.649 114.648 15.1193 114.648 11.9993C114.648 8.88036 112.12 6.35156 109 6.35156Z" fill="black"/>
<path d="M116.193 6.12853C116.193 6.85692 115.602 7.44896 114.872 7.44896C114.144 7.44896 113.553 6.85692 113.553 6.12853C113.553 5.40015 114.144 4.80811 114.872 4.80811C115.602 4.80811 116.193 5.40015 116.193 6.12853Z" fill="black"/>
</svg>
