<svg width="50" height="13" viewBox="0 0 50 13" fill="none" xmlns="http://www.w3.org/2000/svg">
<path d="M8.74219 7.33594C8.74219 8.13281 8.51562 8.74219 8.0625 9.16406C7.61458 9.58073 6.97917 9.78906 6.15625 9.78906C5.33854 9.78906 4.68229 9.51562 4.1875 8.96875C3.69792 8.41667 3.45312 7.66667 3.45312 6.71875V5.85938C3.45312 4.94271 3.70052 4.21094 4.19531 3.66406C4.69531 3.11198 5.34896 2.83594 6.15625 2.83594C6.98958 2.83594 7.63021 3.04948 8.07812 3.47656C8.52604 3.90365 8.75 4.50521 8.75 5.28125H7.60938C7.60938 4.76562 7.48438 4.39844 7.23438 4.17969C6.98958 3.95573 6.63021 3.84375 6.15625 3.84375C5.66667 3.84375 5.28125 4.02344 5 4.38281C4.71875 4.74219 4.57812 5.24219 4.57812 5.88281V6.76562C4.57812 7.39062 4.71875 7.88281 5 8.24219C5.28125 8.60156 5.66667 8.78125 6.15625 8.78125C6.63542 8.78125 6.99479 8.67188 7.23438 8.45312C7.47917 8.23438 7.60156 7.86198 7.60156 7.33594H8.74219ZM1.60938 6.30469C1.60938 7.20052 1.81771 8.03125 2.23438 8.79688C2.65104 9.55729 3.21615 10.1536 3.92969 10.5859C4.64844 11.0182 5.42448 11.2344 6.25781 11.2344C7.09115 11.2344 7.86458 11.0182 8.57812 10.5859C9.29167 10.1536 9.85677 9.55729 10.2734 8.79688C10.6901 8.03125 10.8984 7.20052 10.8984 6.30469C10.8984 5.41927 10.6927 4.59896 10.2812 3.84375C9.86979 3.08854 9.30469 2.49479 8.58594 2.0625C7.8724 1.625 7.09635 1.40625 6.25781 1.40625C5.42448 1.40625 4.64844 1.6224 3.92969 2.05469C3.21094 2.48177 2.64323 3.07552 2.22656 3.83594C1.8151 4.59635 1.60938 5.41927 1.60938 6.30469ZM0.710938 6.30469C0.710938 5.2526 0.953125 4.27604 1.4375 3.375C1.92708 2.47396 2.60156 1.76562 3.46094 1.25C4.32552 0.729167 5.25781 0.46875 6.25781 0.46875C7.25781 0.46875 8.1875 0.729167 9.04688 1.25C9.90625 1.76562 10.5781 2.47396 11.0625 3.375C11.5521 4.27604 11.7969 5.2526 11.7969 6.30469C11.7969 7.33073 11.5625 8.29167 11.0938 9.1875C10.625 10.0833 9.95833 10.8047 9.09375 11.3516C8.23438 11.8932 7.28906 12.1641 6.25781 12.1641C5.23177 12.1641 4.28646 11.8958 3.42188 11.3594C2.5625 10.8177 1.89583 10.099 1.42188 9.20312C0.947917 8.30729 0.710938 7.34115 0.710938 6.30469ZM24.9453 12H17.4922V10.9609L21.4297 6.58594C22.013 5.92448 22.4141 5.38802 22.6328 4.97656C22.8568 4.5599 22.9688 4.13021 22.9688 3.6875C22.9688 3.09375 22.7891 2.60677 22.4297 2.22656C22.0703 1.84635 21.5911 1.65625 20.9922 1.65625C20.2734 1.65625 19.7135 1.86198 19.3125 2.27344C18.9167 2.67969 18.7188 3.2474 18.7188 3.97656H17.2734C17.2734 2.92969 17.6094 2.08333 18.2812 1.4375C18.9583 0.791667 19.862 0.46875 20.9922 0.46875C22.0495 0.46875 22.8854 0.747396 23.5 1.30469C24.1146 1.85677 24.4219 2.59375 24.4219 3.51562C24.4219 4.63542 23.7083 5.96875 22.2812 7.51562L19.2344 10.8203H24.9453V12ZM33.6094 7.14844C33.6094 8.84115 33.3203 10.099 32.7422 10.9219C32.1641 11.7448 31.2604 12.1562 30.0312 12.1562C28.8177 12.1562 27.9193 11.7552 27.3359 10.9531C26.7526 10.1458 26.4505 8.94271 26.4297 7.34375V5.41406C26.4297 3.74219 26.7188 2.5 27.2969 1.6875C27.875 0.875 28.7812 0.46875 30.0156 0.46875C31.2396 0.46875 32.1406 0.861979 32.7188 1.64844C33.2969 2.42969 33.5938 3.63802 33.6094 5.27344V7.14844ZM32.1641 5.17188C32.1641 3.94792 31.9922 3.05729 31.6484 2.5C31.3047 1.9375 30.7604 1.65625 30.0156 1.65625C29.276 1.65625 28.737 1.9349 28.3984 2.49219C28.0599 3.04948 27.8854 3.90625 27.875 5.0625V7.375C27.875 8.60417 28.0521 9.51302 28.4062 10.1016C28.7656 10.6849 29.3073 10.9766 30.0312 10.9766C30.7448 10.9766 31.2734 10.7005 31.6172 10.1484C31.9661 9.59635 32.1484 8.72656 32.1641 7.53906V5.17188ZM42.9141 12H35.4609V10.9609L39.3984 6.58594C39.9818 5.92448 40.3828 5.38802 40.6016 4.97656C40.8255 4.5599 40.9375 4.13021 40.9375 3.6875C40.9375 3.09375 40.7578 2.60677 40.3984 2.22656C40.0391 1.84635 39.5599 1.65625 38.9609 1.65625C38.2422 1.65625 37.6823 1.86198 37.2812 2.27344C36.8854 2.67969 36.6875 3.2474 36.6875 3.97656H35.2422C35.2422 2.92969 35.5781 2.08333 36.25 1.4375C36.9271 0.791667 37.8307 0.46875 38.9609 0.46875C40.0182 0.46875 40.8542 0.747396 41.4688 1.30469C42.0833 1.85677 42.3906 2.59375 42.3906 3.51562C42.3906 4.63542 41.6771 5.96875 40.25 7.51562L37.2031 10.8203H42.9141V12ZM49.1953 12H47.7422V2.36719L44.8281 3.4375V2.125L48.9688 0.570312H49.1953V12Z" fill="#FFFFEF"/>
</svg>
